# This file uses centimeters as units for non-parametric coordinates.

mtllib stand.mtl
g default
v -481.999573 324.727142 -1062.064453
v 481.964111 324.727142 -1062.064453
v -481.999573 403.796997 -1062.064453
v 481.963989 403.796997 -1062.064453
v -628.076050 682.605591 -1500.016113
v 628.040649 682.605591 -1500.016235
v -628.076050 324.727142 -1500.016113
v 628.040649 324.727142 -1500.016235
v -399.477020 403.797272 -1079.828247
v 399.441681 403.797272 -1079.828247
v 531.550415 655.945923 -1475.902710
v -531.585571 655.945923 -1475.902466
v -399.476959 335.676788 -1079.828247
v 399.441681 335.676788 -1079.828247
v 531.550415 574.495728 -1475.902710
v -531.585571 574.495728 -1475.902466
v -560.063599 554.120483 -1400.311279
v 560.028198 554.120483 -1400.311157
v -560.063599 577.816162 -1400.311279
v 560.028198 577.816162 -1400.311157
v -583.602905 577.816162 -1470.884155
v 583.567505 577.816162 -1470.884155
v -583.602905 554.120483 -1470.884155
v 583.567505 554.120483 -1470.884155
v -540.829834 515.484070 -1342.646362
v 540.794434 515.484070 -1342.646606
v -540.829834 539.179749 -1342.646362
v 540.794434 539.179749 -1342.646606
v -564.369019 539.179749 -1413.219238
v 564.333740 539.179749 -1413.219482
v -564.369019 515.484070 -1413.219238
v 564.333740 515.484070 -1413.219482
v -522.876587 479.774231 -1288.820801
v 522.841187 479.774231 -1288.820801
v -522.876587 503.469849 -1288.820801
v 522.841187 503.469849 -1288.820801
v -546.415771 503.469849 -1359.393677
v 546.380493 503.469849 -1359.393677
v -546.415771 479.774231 -1359.393677
v 546.380493 479.774231 -1359.393677
v -502.330597 445.651917 -1227.222046
v 502.295197 445.651917 -1227.222168
v -502.330597 469.347595 -1227.222046
v 502.295197 469.347595 -1227.222168
v -525.869995 469.347595 -1297.795044
v 525.834351 469.347595 -1297.795044
v -525.869995 445.651917 -1297.795044
v 525.834351 445.651917 -1297.795044
v -486.488129 408.304810 -1179.724976
v 486.452789 408.304810 -1179.724976
v -486.488129 432.000488 -1179.724976
v 486.452789 432.000488 -1179.724976
v -510.027435 432.000488 -1250.297852
v 509.992096 432.000488 -1250.297974
v -510.027435 408.304810 -1250.297852
v 509.992096 408.304810 -1250.297974
v -465.277069 374.249084 -1116.131836
v 465.241730 374.249084 -1116.132080
v -465.277069 397.944733 -1116.131836
v 465.241730 397.944733 -1116.132080
v -488.816315 397.944733 -1186.705078
v 488.780914 397.944733 -1186.705078
v -488.816315 374.249084 -1186.705078
v 488.780914 374.249084 -1186.705078
vt 0.942334 0.606844
vt 0.605475 0.606844
vt 0.948502 0.483609
vt 0.728758 0.483609
vt 0.573892 0.983145
vt 0.212997 0.982678
vt 0.213252 0.823892
vt 0.574146 0.824357
vt 0.030235 0.823655
vt 0.030127 0.869901
vt 0.942334 0.663546
vt 0.569859 0.663546
vt 0.019848 0.493725
vt 0.525256 0.493725
vt 0.525256 0.810618
vt 0.019848 0.810618
vt 0.928751 0.696545
vt 0.728758 0.449635
vt 0.589143 0.696545
vt 0.948502 0.449635
vt 0.964657 0.756173
vt 0.589143 0.756173
vt 0.757161 0.824594
vt 0.757054 0.870840
vt 0.974520 0.797349
vt 0.549354 0.797349
vt 0.581991 0.773146
vt 0.941883 0.773146
vt 0.292425 0.483609
vt 0.292425 0.449635
vt 0.019123 0.483609
vt 0.019123 0.449635
vt 0.069343 0.365333
vt 0.922006 0.365162
vt 0.922036 0.382509
vt 0.069373 0.382680
vt 0.922128 0.435997
vt 0.069462 0.436167
vt 0.972843 0.382499
vt 0.972933 0.435987
vt 0.018647 0.436173
vt 0.018567 0.382691
vt 0.069343 0.365333
vt 0.922006 0.365162
vt 0.922036 0.382509
vt 0.069373 0.382680
vt 0.922128 0.435997
vt 0.069462 0.436167
vt 0.972843 0.382499
vt 0.972933 0.435987
vt 0.018647 0.436173
vt 0.018567 0.382691
vt 0.069343 0.365333
vt 0.922006 0.365162
vt 0.922036 0.382509
vt 0.069373 0.382680
vt 0.922128 0.435997
vt 0.069462 0.436167
vt 0.972843 0.382499
vt 0.972933 0.435987
vt 0.018647 0.436173
vt 0.018567 0.382691
vt 0.069343 0.365333
vt 0.922006 0.365162
vt 0.922036 0.382509
vt 0.069373 0.382680
vt 0.922128 0.435997
vt 0.069462 0.436167
vt 0.972843 0.382499
vt 0.972933 0.435987
vt 0.018647 0.436173
vt 0.018567 0.382691
vt 0.069343 0.365333
vt 0.922006 0.365162
vt 0.922036 0.382509
vt 0.069373 0.382680
vt 0.922128 0.435997
vt 0.069462 0.436167
vt 0.972843 0.382499
vt 0.972933 0.435987
vt 0.018647 0.436173
vt 0.018567 0.382691
vt 0.069343 0.365333
vt 0.922006 0.365162
vt 0.922036 0.382509
vt 0.069373 0.382680
vt 0.922128 0.435997
vt 0.069462 0.436167
vt 0.972843 0.382499
vt 0.972933 0.435987
vt 0.018647 0.436173
vt 0.018567 0.382691
vn 0.000000 0.856371 0.516362
vn 0.000000 0.856371 0.516362
vn 0.000000 0.856371 0.516362
vn 0.000000 0.856371 0.516362
vn -0.000000 0.000000 -1.000000
vn -0.000000 0.000000 -1.000000
vn -0.000000 0.000000 -1.000000
vn -0.000000 0.000000 -1.000000
vn 0.948623 0.000000 0.316408
vn 0.948623 0.000000 0.316408
vn 0.948623 0.000000 0.316408
vn 0.948623 0.000000 0.316408
vn -0.948623 0.000000 0.316408
vn -0.948623 0.000000 0.316408
vn -0.948623 0.000000 0.316408
vn -0.948623 0.000000 0.316408
vn -0.109269 0.854622 0.507623
vn -0.109269 0.854622 0.507623
vn -0.109269 0.854622 0.507623
vn -0.109269 0.854622 0.507623
vn 0.000000 0.670805 0.741634
vn 0.000000 0.670805 0.741634
vn 0.000000 0.670805 0.741634
vn 0.000000 0.670805 0.741634
vn 0.109268 0.854622 0.507623
vn 0.109268 0.854622 0.507623
vn 0.109268 0.854622 0.507623
vn 0.109268 0.854622 0.507624
vn -0.948623 0.000000 -0.316409
vn -0.948623 0.000000 -0.316409
vn -0.948623 0.000000 -0.316409
vn -0.948623 0.000000 -0.316409
vn 0.000000 0.000000 1.000000
vn 0.000000 0.000000 1.000000
vn 0.000000 0.000000 1.000000
vn 0.000000 0.000000 1.000000
vn 0.948623 0.000001 -0.316408
vn 0.948623 0.000001 -0.316408
vn 0.948623 0.000001 -0.316408
vn 0.948623 0.000001 -0.316408
vn 0.000000 0.000000 1.000000
vn 0.000000 0.000000 1.000000
vn 0.000000 0.000000 1.000000
vn 0.000000 0.000000 1.000000
vn 0.000000 1.000000 0.000001
vn 0.000000 1.000000 0.000001
vn 0.000000 1.000000 0.000001
vn 0.000000 1.000000 0.000001
vn 0.948623 0.000000 0.316409
vn 0.948623 0.000000 0.316409
vn 0.948623 0.000000 0.316409
vn 0.948623 0.000000 0.316409
vn -0.948623 0.000000 0.316409
vn -0.948623 0.000000 0.316409
vn -0.948623 0.000000 0.316409
vn -0.948623 0.000000 0.316409
vn 0.000000 0.000000 1.000000
vn 0.000000 0.000000 1.000000
vn 0.000000 0.000000 1.000000
vn 0.000000 0.000000 1.000000
vn 0.000000 1.000000 0.000000
vn 0.000000 1.000000 0.000000
vn 0.000000 1.000000 0.000000
vn 0.000000 1.000000 0.000000
vn 0.948623 0.000000 0.316409
vn 0.948623 0.000000 0.316409
vn 0.948623 0.000000 0.316409
vn 0.948623 0.000000 0.316409
vn -0.948623 0.000000 0.316408
vn -0.948623 0.000000 0.316408
vn -0.948623 0.000000 0.316408
vn -0.948623 0.000000 0.316408
vn 0.000000 0.000000 1.000000
vn 0.000000 0.000000 1.000000
vn 0.000000 0.000000 1.000000
vn 0.000000 0.000000 1.000000
vn 0.000000 1.000000 0.000001
vn 0.000000 1.000000 0.000001
vn 0.000000 1.000000 0.000001
vn 0.000000 1.000000 0.000001
vn 0.948623 0.000000 0.316409
vn 0.948623 0.000000 0.316409
vn 0.948623 0.000000 0.316409
vn 0.948623 0.000000 0.316409
vn -0.948623 0.000000 0.316408
vn -0.948623 0.000000 0.316408
vn -0.948623 0.000000 0.316408
vn -0.948623 0.000000 0.316408
vn 0.000000 0.000000 1.000000
vn 0.000000 0.000000 1.000000
vn 0.000000 0.000000 1.000000
vn 0.000000 0.000000 1.000000
vn 0.000000 1.000000 0.000000
vn 0.000000 1.000000 0.000000
vn 0.000000 1.000000 0.000000
vn 0.000000 1.000000 0.000000
vn 0.948624 0.000000 0.316407
vn 0.948624 0.000000 0.316407
vn 0.948624 0.000000 0.316407
vn 0.948624 0.000000 0.316407
vn -0.948623 0.000000 0.316410
vn -0.948623 0.000000 0.316410
vn -0.948623 0.000000 0.316410
vn -0.948623 0.000000 0.316410
vn 0.000000 0.000000 1.000000
vn 0.000000 0.000000 1.000000
vn 0.000000 0.000000 1.000000
vn 0.000000 0.000000 1.000000
vn 0.000000 1.000000 0.000000
vn 0.000000 1.000000 0.000000
vn 0.000000 1.000000 0.000000
vn 0.000000 1.000000 0.000000
vn 0.948623 0.000000 0.316409
vn 0.948623 0.000000 0.316409
vn 0.948623 0.000000 0.316409
vn 0.948623 0.000000 0.316409
vn -0.948623 0.000000 0.316410
vn -0.948623 0.000000 0.316410
vn -0.948623 0.000000 0.316410
vn -0.948623 0.000000 0.316410
vn 0.000000 0.000000 1.000000
vn 0.000000 0.000000 1.000000
vn 0.000000 0.000000 1.000000
vn 0.000000 0.000000 1.000000
vn 0.000000 1.000000 -0.000000
vn 0.000000 1.000000 -0.000000
vn 0.000000 1.000000 -0.000000
vn 0.000000 1.000000 -0.000000
vn 0.948623 0.000000 0.316407
vn 0.948623 0.000000 0.316407
vn 0.948623 0.000000 0.316407
vn 0.948623 0.000000 0.316407
vn -0.948624 0.000000 0.316407
vn -0.948624 0.000000 0.316407
vn -0.948624 0.000000 0.316407
vn -0.948624 0.000000 0.316407
s off
g Grandstand2
usemtl initialShadingGroup
f 13/13/1 14/14/2 15/15/3 16/16/4
f 5/5/5 6/6/6 8/7/7 7/8/8
f 2/9/9 8/7/10 6/6/11 4/10/12
f 7/8/13 1/23/14 3/24/15 5/5/16
f 4/11/17 6/12/18 11/2/19 10/1/20
f 6/25/21 5/26/22 12/27/23 11/28/24
f 5/21/25 3/22/26 9/19/27 12/17/28
f 10/3/29 11/4/30 15/18/31 14/20/32
f 11/4/33 12/29/34 16/30/35 15/18/36
f 12/29/37 9/31/38 13/32/39 16/30/40
f 17/33/41 18/34/42 20/35/43 19/36/44
f 19/36/45 20/35/46 22/37/47 21/38/48
f 18/39/49 24/40/50 22/37/51 20/35/52
f 23/41/53 17/42/54 19/36/55 21/38/56
f 25/43/57 26/44/58 28/45/59 27/46/60
f 27/46/61 28/45/62 30/47/63 29/48/64
f 26/49/65 32/50/66 30/47/67 28/45/68
f 31/51/69 25/52/70 27/46/71 29/48/72
f 33/53/73 34/54/74 36/55/75 35/56/76
f 35/56/77 36/55/78 38/57/79 37/58/80
f 34/59/81 40/60/82 38/57/83 36/55/84
f 39/61/85 33/62/86 35/56/87 37/58/88
f 41/63/89 42/64/90 44/65/91 43/66/92
f 43/66/93 44/65/94 46/67/95 45/68/96
f 42/69/97 48/70/98 46/67/99 44/65/100
f 47/71/101 41/72/102 43/66/103 45/68/104
f 49/73/105 50/74/106 52/75/107 51/76/108
f 51/76/109 52/75/110 54/77/111 53/78/112
f 50/79/113 56/80/114 54/77/115 52/75/116
f 55/81/117 49/82/118 51/76/119 53/78/120
f 57/83/121 58/84/122 60/85/123 59/86/124
f 59/86/125 60/85/126 62/87/127 61/88/128
f 58/89/129 64/90/130 62/87/131 60/85/132
f 63/91/133 57/92/134 59/86/135 61/88/136
